# xmcd
#
# Track frame offsets:
#	150
#	10300
#	27184
#	43960
#	60031
#	72187
#	87736
#	95511
#	110351
#	125915
#	134834
#	143888
#
# Disc length: 2140 seconds
#
# Revision: 0
# Processed by: cddbd v1.5.2PL0 Copyright (c) Steve Scherf et al.
# Submitted via: EasyCDDAExtractor 10.2.0.1
#
DISCID=b0085a0c
DTITLE=Ryan Shaw - This Is Ryan Shaw
DYEAR=1900
DGENRE=
TTITLE0=Do The 45
TTITLE1=We Got Love
TTITLE2=Nobody
TTITLE3=I Am Your Man
TTITLE4=Working On A Building Of Love
TTITLE5=I Found A Love
TTITLE6=I Do The Jerk
TTITLE7=Looking For A Love
TTITLE8=I'll Always Love You
TTITLE9=I'll Be Satasfied
TTITLE10=Mish Mash
TTITLE11=Over And Done
EXTD=
EXTT0=
EXTT1=
EXTT2=
EXTT3=
EXTT4=
EXTT5=
EXTT6=
EXTT7=
EXTT8=
EXTT9=
EXTT10=
EXTT11=
PLAYORDER=
